<?xml version="1.0" encoding="utf-8"?>
<svg viewBox="0 0 65 16" xmlns="http://www.w3.org/2000/svg">
  <style>.st0{fill:#fff}</style>
  <path class="st0" d="M 4.6 3.1 L 1 3.1 L 1 7.2 L 3.4 9.4 L 3.4 5.4 L 4.7 5.4 C 5.5 5.4 5.9 5.8 5.9 6.4 L 5.9 9.4 C 5.9 10 5.5 10.5 4.7 10.5 L 1 10.5 L 1 12.8 L 4.6 12.8 C 6.5 12.8 8.3 11.8 8.3 9.6 L 8.3 6.4 C 8.3 4.1 6.5 3.1 4.6 3.1 L 4.6 3.1 Z M 23.3 9.7 L 23.3 6.3 C 23.3 5.1 25.4 4.8 26.1 6 L 28.1 5.2 C 27.3 3.5 25.9 3 24.7 3 C 22.8 3 20.9 4.1 20.9 6.3 L 20.9 9.6 C 20.9 11.8 22.8 12.9 24.7 12.9 C 25.9 12.9 27.3 12.3 28.1 10.7 L 26 9.7 C 25.5 11.2 23.3 10.8 23.3 9.7 Z M 16.8 6.8 C 16.1 6.6 15.6 6.4 15.5 5.9 C 15.5 4.8 17.3 4.7 18.3 5.8 L 19.9 4.6 C 18.9 3.4 17.8 3 16.6 3 C 14.8 3 13.1 4 13.1 5.9 C 13.1 7.8 14.5 8.7 16 9 C 16.8 9.1 17.7 9.4 17.6 10 C 17.5 11 15.4 11 14.5 9.8 L 13 11.3 C 13.9 12.5 15.1 13.1 16.3 13.1 C 18.1 13.1 20 12.1 20.1 10.2 C 20.2 7.7 18.5 7.1 16.8 6.8 L 16.8 6.8 Z M 9.6 12.9 L 12 12.9 L 12 3.1 L 9.6 3.1 L 9.6 12.9 L 9.6 12.9 Z M 50.3 3.1 L 46.7 3.1 L 46.7 7.2 L 49.1 9.4 L 49.1 5.4 L 50.4 5.4 C 51.2 5.4 51.6 5.8 51.6 6.4 L 51.6 9.4 C 51.6 10 51.2 10.5 50.4 10.5 L 46.7 10.5 L 46.7 12.8 L 50.3 12.8 C 52.2 12.8 54 11.8 54 9.6 L 54 6.4 C 54 4.1 52.2 3.1 50.3 3.1 L 50.3 3.1 Z M 32.7 3 C 30.7 3 28.7 4.1 28.7 6.3 L 28.7 9.6 C 28.7 11.8 30.7 12.9 32.7 12.9 C 34.7 12.9 36.7 11.8 36.7 9.6 L 36.7 6.3 C 36.7 4.1 34.7 3 32.7 3 Z M 34.3 9.7 C 34.3 10.4 33.5 10.8 32.8 10.8 C 32 10.8 31.2 10.5 31.2 9.7 L 31.2 6.3 C 31.2 5.6 32 5.2 32.7 5.2 C 33.5 5.2 34.3 5.5 34.3 6.3 L 34.3 9.7 Z M 45.4 6.3 C 45.3 4 43.8 3.1 41.8 3.1 L 38 3.1 L 38 12.8 L 40.4 12.8 L 40.4 9.8 L 40.8 9.8 L 43 12.9 L 46 12.9 L 43.4 9.6 C 44.6 9.2 45.4 8.1 45.4 6.3 L 45.4 6.3 Z M 41.8 7.7 L 40.4 7.7 L 40.4 5.4 L 41.8 5.4 C 43.4 5.4 43.4 7.7 41.8 7.7 L 41.8 7.7 Z"/>
  <text style="fill: rgb(255, 255, 255); font-family: &quot;Lucida Sans Unicode&quot;; font-size: 16px; font-weight: 700; white-space: pre;" x="52.958" y="6.422" dx="1.283" dy="6.057">J</text>
</svg>